<?xml version="1.0" encoding="UTF-8" standalone="no"?>
<!-- Created with Inkscape (http://www.inkscape.org/) -->

<svg
   version="1.1"
   id="svg281"
   width="412.64453"
   height="523.06482"
   viewBox="0 0 412.64453 523.06482"
   sodipodi:docname="Captura de pantalla de 2023-07-22 01-25-52.png"
   xmlns:inkscape="http://www.inkscape.org/namespaces/inkscape"
   xmlns:sodipodi="http://sodipodi.sourceforge.net/DTD/sodipodi-0.dtd"
   xmlns="http://www.w3.org/2000/svg"
   xmlns:svg="http://www.w3.org/2000/svg">
  <defs
     id="defs285" />
  <sodipodi:namedview
     id="namedview283"
     pagecolor="#ffffff"
     bordercolor="#000000"
     borderopacity="0.25"
     inkscape:showpageshadow="2"
     inkscape:pageopacity="0.0"
     inkscape:pagecheckerboard="0"
     inkscape:deskcolor="#d1d1d1"
     showgrid="false" />
  <g
     inkscape:groupmode="layer"
     inkscape:label="Image"
     id="g287"
     transform="translate(-468.63019,-93.52285)">
    <g
       id="g1816"
       transform="matrix(1.5454851,0,0,1.5454851,-438.06855,-375.36481)">
      <path
         style="fill:#008000"
         d="m 680.2393,364.8994 c 3.41945,-7.0882 5.41729,-16.2573 5.35145,-24.5605 -0.0551,-6.945 -1.68799,-14.303 -1.84464,-8.3121 -0.20231,7.7367 -5.37878,23.6613 -9.77398,30.0682 -3.09681,4.5141 -4.37068,3.912 -7.94568,-3.7561 -6.1331,-13.155 -0.55412,-32.5778 13.75372,-47.8825 l 6.60434,-7.0645 2.2467,4.9735 c 6.31198,13.9727 9.61804,28.213 8.75632,37.7162 -1.00109,11.0402 -8.4333,21.2783 -16.91849,23.3057 l -2.70678,0.6467 z"
         id="path835" />
      <path
         style="fill:#008000"
         d="m 686.69935,426.3672 c -0.67175,-0.8094 -1.57616,-3.0447 -2.00979,-4.9674 l -0.78842,-3.4957 2.85769,1.4777 c 3.74712,1.9377 5.4758,5.0788 3.86394,7.021 -1.50895,1.8182 -2.39159,1.8102 -3.92342,-0.036 z"
         id="path833" />
      <path
         style="fill:#008000"
         d="m 707.92582,440.1496 c 0.9625,-0.2516 2.5375,-0.2516 3.5,0 0.9625,0.2515 0.175,0.4573 -1.75,0.4573 -1.925,0 -2.7125,-0.2058 -1.75,-0.4573 z"
         id="path831" />
      <path
         style="fill:#008000"
         d="m 701.17582,441.8389 c 1.1,-0.4727 2.675,-0.8594 3.5,-0.8594 0.94548,0 0.76064,0.3177 -0.5,0.8594 -1.1,0.4727 -2.675,0.8594 -3.5,0.8594 -0.94548,0 -0.76064,-0.3177 0.5,-0.8594 z"
         id="path829" />
      <path
         style="fill:#008000"
         d="m 694.17582,445.6311 c -6.66406,-3.8219 -6.86892,-12.7508 -0.4777,-20.8204 2.57354,-3.2493 3.77133,-3.9718 6.58478,-3.9718 h 3.43903 l -1.66467,2.5406 c -2.27941,3.4788 -5.12843,4.9143 -6.87562,3.4642 -1.05944,-0.8792 -1.60663,-0.685 -2.43608,0.8649 -1.42271,2.6583 -1.35786,3.8184 0.13026,2.3303 1.32916,-1.3292 8.40294,-1.6515 9.1655,-0.4176 0.79653,1.2888 -6.16754,5.5075 -7.95762,4.8206 -1.40047,-0.5374 -1.43901,-0.8743 -0.2705,-2.3648 1.20355,-1.5353 1.17677,-1.5933 -0.22939,-0.4969 -0.8756,0.6827 -1.8881,0.9452 -2.25,0.5834 -1.23825,-1.2383 -0.58933,6.1713 0.7526,8.5934 1.62015,2.9243 4.7267,3.3485 13.34201,1.8219 5.33213,-0.9449 6.76745,-0.8624 9.75,0.5598 1.92357,0.9173 3.4974,2.1355 3.4974,2.7071 0,0.5804 -1.02572,0.3671 -2.32313,-0.483 -1.75176,-1.1478 -4.68105,-1.4609 -11.91006,-1.273 -8.11816,0.2109 -9.25599,0.4352 -7.42686,1.4637 1.40315,0.7889 1.63444,1.2163 0.66005,1.2196 -0.825,0 -2.4,-0.5112 -3.5,-1.142 z"
         id="path827" />
      <path
         style="fill:#008000"
         d="m 787.67582,471.0938 -9.5,-0.33 -5.129,-5.0588 -5.12899,-5.0588 -14.62175,0.3464 c -9.7328,0.2305 -14.6215,0 -14.62101,-0.6999 4.9e-4,-0.684 3.28981,-0.9024 9.50075,-0.6307 5.65985,0.2475 9.5,0.029 9.5,-0.5398 0,-0.5254 -1.86358,-2.6282 -4.14129,-4.6729 l -4.1413,-3.7177 -12.6087,0.3942 c -6.93479,0.2168 -13.50871,0.5784 -14.60871,0.8036 -1.26489,0.259 -2,-0.1207 -2,-1.033 0,-1.2062 2.52563,-1.3971 15.42189,-1.1654 l 15.42189,0.277 4.7377,4.9154 c 4.25759,4.4174 5.18136,4.9155 9.1157,4.9155 3.9303,0 4.88163,0.5113 9.30282,5 l 4.92482,5 h 8.08759 c 4.95701,0 8.55209,-0.4645 9.28759,-1.2 0.88114,-0.8811 1.49571,-0.9043 2.31287,-0.087 1.10667,1.1067 0.39744,3.4759 -0.92189,3.0796 -0.38004,-0.1142 -4.96598,-0.3561 -10.19098,-0.5376 z m 11,-1.2549 c 0,-0.55 -0.45,-1 -1,-1 -0.55,0 -1,0.45 -1,1 0,0.55 0.45,1 1,1 0.55,0 1,-0.45 1,-1 z m -76,-19 c 0,-0.55 -0.47656,-1 -1.05902,-1 -0.58246,0 -0.7809,0.45 -0.44098,1 0.33992,0.55 0.81648,1 1.05902,1 0.24254,0 0.44098,-0.45 0.44098,-1 z"
         id="path825" />
      <path
         style="fill:#008000"
         d="m 727.67582,478.1702 c 0,-1.7707 0.70738,-1.8753 10.25,-1.5158 12.96132,0.4884 15.42319,2.1795 3.2,2.1981 -4.9225,0.01 -9.9625,0.285 -11.2,0.6167 -1.75603,0.4706 -2.25,0.1854 -2.25,-1.299 z"
         id="path823" />
      <path
         style="fill:#008000"
         d="m 708.71263,473.2518 -7.94128,-7.587 -13.79776,0.2947 c -11.18621,0.2389 -13.79777,0.034 -13.79777,-1.081 0,-1.1248 3.28108,-1.3345 18,-1.1504 l 18,0.2251 4.54064,-4.5019 4.54064,-4.502 13.95936,-0.3111 c 7.67765,-0.1711 14.60763,-0.5335 15.39997,-0.8052 0.79234,-0.2718 1.59157,0.1809 1.77608,1.0059 0.2892,1.2931 -1.7711,1.4559 -14.94061,1.1804 l -15.27608,-0.3195 -4.96241,5.0695 c -3.79086,3.8728 -5.67363,5.0696 -7.97497,5.0696 -2.95565,0 -2.87182,0.1417 4.43738,7.5 4.09747,4.125 7.11878,7.5 6.71401,7.5 -0.40476,0 -4.3095,-3.4142 -8.6772,-7.5871 z m -33.03681,-8.4129 c 0,-0.55 -0.45,-1 -1,-1 -0.55,0 -1,0.45 -1,1 0,0.55 0.45,1 1,1 0.55,0 1,-0.45 1,-1 z m 73,-10 c 0,-0.55 -0.19844,-1 -0.44098,-1 -0.24254,0 -0.7191,0.45 -1.05902,1 -0.33992,0.55 -0.14148,1 0.44098,1 0.58246,0 1.05902,-0.45 1.05902,-1 z"
         id="path821" />
      <path
         style="fill:#008000"
         d="m 705.17582,478.8389 c -3.77674,-3.8677 -4.12404,-4 -10.50295,-4 -3.62838,0 -7.06612,0.4691 -7.63943,1.0424 -0.72318,0.7232 -1.44515,0.5571 -2.35762,-0.5424 -1.74164,-2.0986 0.29812,-4.6019 2.2,-2.7 0.70789,0.7079 4.11046,1.2 8.29705,1.2 6.9469,0 7.17864,0.084 10.95291,3.9487 2.7608,2.8274 4.87741,4.0576 7.45294,4.3319 l 3.5971,0.3832 -4.04705,0.1681 c -3.50849,0.1457 -4.56683,-0.3642 -7.95295,-3.8319 z"
         id="path819" />
      <path
         style="fill:#008000"
         d="m 763.83371,502.8389 c 0,-1.375 0.22698,-1.9375 0.50439,-1.25 0.27741,0.6875 0.27741,1.8125 0,2.5 -0.27741,0.6875 -0.50439,0.125 -0.50439,-1.25 z"
         id="path817" />
      <path
         style="fill:#008000"
         d="m 778.67582,509.9116 c 0,-2.011 3.63031,-7.0727 5.07258,-7.0727 1.09542,0 1.22496,6.0319 0.16211,7.548 -1.30961,1.868 -5.23469,1.5117 -5.23469,-0.4753 z"
         id="path815" />
      <path
         style="fill:#008000"
         d="m 739.1123,511.0807 -14.06351,-0.2944 -4.89889,-4.9737 c -4.45828,-4.5264 -5.3104,-4.9737 -9.47408,-4.9737 -4.16691,0 -5.01466,-0.4462 -9.5,-5 l -4.92482,-5 h -8.08759 c -4.60522,0 -8.56677,0.4792 -9.20046,1.1129 -1.26611,1.2661 -3.28713,0.3763 -3.28713,-1.4472 0,-0.9024 2.77408,-1.1213 10.75,-0.8482 l 10.75,0.368 4.62991,4.5014 4.62991,4.5013 15.12091,-0.3441 c 13.12366,-0.2987 15.1208,-0.1399 15.12009,1.2021 -7e-4,1.3165 -1.4493,1.4869 -9.75082,1.1467 l -9.75,-0.3995 4,4.16 4,4.16 15,-0.2036 c 11.82405,-0.1606 15,0.074 15,1.1099 0,1.6336 0.77401,1.5747 -16.06352,1.2221 z m 15.56352,-1.2418 c 0,-0.55 -0.45,-1 -1,-1 -0.55,0 -1,0.45 -1,1 0,0.55 0.45,1 1,1 0.55,0 1,-0.45 1,-1 z m -76.5,-19 c 0.33992,-0.55 0.14148,-1 -0.44098,-1 -0.58246,0 -1.05902,0.45 -1.05902,1 0,0.55 0.19844,1 0.44098,1 0.24254,0 0.7191,-0.45 1.05902,-1 z"
         id="path813" />
      <path
         style="fill:#008000"
         d="m 771.90232,512.9868 c -0.57552,-1.4998 2.56705,-8.1479 3.85152,-8.1479 1.13066,0 2.16674,5.6535 1.44995,7.9119 -0.71543,2.2541 -4.46302,2.4209 -5.30147,0.236 z"
         id="path811" />
      <path
         style="fill:#008000"
         d="m 780.68639,519.3516 c -1.60483,-1.9337 -0.58543,-4.5127 1.78373,-4.5127 1.74699,0 6.2057,3.8184 6.2057,5.3144 0,1.3404 -6.77597,0.6605 -7.98943,-0.8017 z"
         id="path809" />
      <path
         style="fill:#008000"
         d="m 720.67582,553.4057 c -13.50598,-2.8485 -24.19282,-7.7908 -35.86588,-16.5867 -23.49632,-17.705 -37.08823,-49.4972 -33.30604,-77.9047 1.11439,-8.37 5.80518,-25.7755 6.70423,-24.8764 0.21239,0.2124 -0.3665,3.067 -1.28642,6.3436 -2.17508,7.7472 -2.27805,32.0054 -0.16112,37.9574 l 1.42266,4 21.5567,0.269 21.5567,0.2689 4.39779,4.4811 4.3978,4.481 h 15.80536 c 10.48388,0 16.44683,-0.4006 17.71059,-1.1898 2.45546,-1.5335 5.29891,0.5716 4.86589,3.6023 -0.33514,2.3457 -4.3437,3.4421 -6.1136,1.6722 -0.68679,-0.6868 -6.8039,-1.0847 -16.67645,-1.0847 h -15.59179 l -4.41642,-4.5 -4.41642,-4.5 h -20.79179 c -23.55798,0 -22.33949,-0.5566 -18.38,8.3965 7.14262,16.1507 19.88436,29.5008 36.76419,38.5197 13.0623,6.9791 20.06478,8.5668 37.82402,8.5759 13.46981,0.01 16.48235,-0.299 23,-2.3351 21.77967,-6.8041 39.78501,-21.6061 49.82612,-40.9616 4.30148,-8.2917 7.69538,-18.5426 6.682,-20.1823 -0.39104,-0.6327 -8.59884,-1.0131 -21.85893,-1.0131 h -21.23277 l -4.41642,-4.5 -4.41642,-4.5 -15.04179,0.032 c -11.63962,0.025 -15.48084,0.3639 -16.98292,1.5 -1.74889,1.3228 -0.96135,1.4682 7.95239,1.4682 9.7763,0 9.93266,0.038 13.19601,3.2009 2.80244,2.7162 3.94527,3.1622 7.54761,2.9456 3.86266,-0.2322 4.64677,0.1551 8.70333,4.2991 4.39943,4.4944 4.54511,4.5544 11.05,4.5544 3.79361,0 7.10118,-0.5094 7.79179,-1.2 0.88114,-0.8811 1.49571,-0.9043 2.31287,-0.087 2.2331,2.2331 -0.19913,2.9248 -8.81272,2.5062 -8.64101,-0.4198 -8.87317,-0.498 -12.838,-4.3233 -3.09861,-2.9896 -4.83773,-3.8958 -7.47654,-3.8958 h -3.43869 l 7.95308,8 7.95308,8 h 12.07346 c 7.0429,0 12.50778,-0.4343 13.11584,-1.0424 0.72318,-0.7232 1.44515,-0.5571 2.35762,0.5424 1.74164,2.0985 -0.29812,4.6019 -2.2,2.7 -0.83382,-0.8338 -6.10617,-1.2 -17.27776,-1.2 -15.2065,0 -16.17736,0.1163 -17.91582,2.1467 -1.43497,1.6759 -1.70565,3.1127 -1.2343,6.5516 0.42034,3.0667 0.27108,4.1992 -0.49132,3.728 -0.73971,-0.4571 -0.86345,0.053 -0.3813,1.5721 0.39257,1.2369 0.81209,2.9188 0.93226,3.7376 0.59452,4.0508 10.42223,4.1845 15.92232,0.2167 l 3.14592,-2.2694 -2.39705,2.6293 c -4.63717,5.0866 -13.32458,5.9245 -17.83705,1.7205 -1.82124,-1.6967 -2.01569,-2.7371 -1.53964,-8.2376 l 0.54486,-6.2955 -2.38556,2.1658 c -2.18723,1.9858 -3.65347,2.1936 -17.63638,2.5 -11.31831,0.248 -15.2506,0.027 -15.25,-0.8568 0.001,-1.8025 2.02997,-2.6799 3.28795,-1.4219 0.69841,0.6984 5.76644,1.1129 13.60815,1.1129 12.19778,0 12.56206,-0.064 15.3,-2.6871 3.59329,-3.4426 3.556,-6.7155 -0.11836,-10.3898 l -2.92307,-2.9231 h -15 -15 l -3.1218,-3.1218 c -1.71699,-1.717 -2.9891,-3.249 -2.82692,-3.4045 0.9074,-0.87 28.79615,-0.8446 28.79594,0.026 -1.6e-4,0.6333 -4.76688,0.8715 -13.00066,0.6496 -7.30126,-0.1969 -13.00041,0.044 -13.00041,0.55 0,2.7795 2.87259,3.3004 18.2,3.3004 9.86667,0 15.8,0.3755 15.8,1 0,0.55 0.47656,1 1.05902,1 0.58246,0 0.73793,-0.5196 0.34549,-1.1545 -0.43207,-0.6991 -0.27535,-0.8837 0.39731,-0.468 0.61096,0.3776 0.85734,1.3471 0.54752,2.1545 -0.30983,0.8074 -0.0767,1.468 0.51799,1.468 0.59472,0 1.81331,1.4155 2.70797,3.1456 0.93179,1.8019 1.90946,2.6881 2.28866,2.0745 0.3641,-0.5891 2.33803,-1.2172 4.38652,-1.3956 l 3.72454,-0.3245 -7.90523,-8 c -6.41375,-6.4907 -8.39241,-7.9394 -10.4875,-7.6785 -1.42026,0.1769 -2.58229,-0.1606 -2.58229,-0.7499 0,-0.5894 0.74474,-1.0716 1.65499,-1.0716 1.47272,0 1.44985,-0.2267 -0.20766,-2.0582 -1.74993,-1.9337 -2.84846,-2.0466 -18.15341,-1.8662 -8.95992,0.1056 -16.40398,-0.056 -16.54234,-0.3585 -0.13837,-0.3027 0.15807,-0.9254 0.65875,-1.3838 0.52889,-0.4841 0.60891,-0.3095 0.19098,0.4167 -0.39564,0.6875 -0.24279,1.25 0.33967,1.25 0.58246,0 1.05902,-0.3622 1.05902,-0.8048 0,-0.4426 2.025,-0.7364 4.5,-0.6528 4.27151,0.1442 5.69447,-0.6861 3.5,-2.0424 -1.4921,-0.9222 -1.20742,-4.083 0.49499,-5.4959 1.20411,-0.9993 1.97557,-0.9258 3.96482,0.3776 2.01282,1.3189 5.39833,1.6183 18.2968,1.6183 h 15.82697 l 4.41642,4.5 4.41642,4.5 h 20.26873 20.26874 l 1.66508,-2.5412 c 1.4202,-2.1675 1.57852,-4.4103 1.07654,-15.25 -0.6134,-13.2457 -1.6669,-18.3365 -6.04458,-29.2088 -3.16144,-7.8517 -0.70463,-5.2896 3.35618,3.5 6.2054,13.4315 7.45222,19.6219 7.45222,37 0,13.9649 -0.29678,16.9483 -2.33332,23.4559 -3.41691,10.9183 -6.40152,17.1692 -12.2087,25.5696 -11.77836,17.038 -29.77801,29.5555 -50.41731,35.0617 -8.21164,2.1908 -29.16232,2.738 -37.5,0.9796 z m 41.34508,-41.1099 c -0.32569,-0.8488 -0.80663,-1.3287 -1.06875,-1.0666 -0.26213,0.2622 -0.17998,0.9566 0.18255,1.5432 0.98605,1.5954 1.56238,1.2855 0.8862,-0.4766 z m -33.34508,-7.4569 c 0,-0.55 -0.45,-1 -1,-1 -0.55,0 -1,0.45 -1,1 0,0.55 0.45,1 1,1 0.55,0 1,-0.45 1,-1 z m 72.45729,-8.9309 c 0.31644,-0.512 0.11799,-1.2136 -0.44098,-1.559 -0.55897,-0.3455 -1.01631,0.073 -1.01631,0.9309 0,1.7565 0.60006,2.0151 1.45729,0.6281 z"
         id="path807" />
      <path
         style="fill:#008000"
         d="m 700.61052,571.295 c -31.49118,-6.2856 -59.43919,-28.0274 -72.78367,-56.6211 -7.71829,-16.5382 -11.25914,-37.2456 -9.23068,-53.9823 3.08874,-25.485 13.09077,-45.9327 30.77957,-62.9242 13.96409,-13.4136 30.99472,-22.7127 48.06915,-26.2466 4.82708,-0.9991 9.02071,-2.6754 12.54494,-5.0147 10.89101,-7.229 23.6196,-9.762 36.05383,-7.1747 24.16684,5.0286 43.41137,23.7577 50.73864,49.3798 1.04143,3.6417 1.89352,6.7444 1.89352,6.8948 0,0.1505 -1.6875,-0.5852 -3.75,-1.6348 -7.21349,-3.6709 -11.80424,-4.3251 -35.75,-5.0946 -31.32474,-1.0067 -41.29967,-3.4413 -51.36817,-12.5376 -4.20813,-3.8018 -8.00893,-11.0351 -6.54866,-12.4628 0.50426,-0.493 4.74183,-1.7156 9.41683,-2.7169 11.29862,-2.4198 37.8605,-2.4734 45.99865,-0.093 3.02426,0.8847 5.61979,1.4874 5.76784,1.3393 0.14805,-0.148 -2.32635,-1.6219 -5.49865,-3.2752 -9.34586,-4.8709 -14.26823,-5.7999 -30.26784,-5.712 -12.66936,0.07 -15.59063,0.4122 -23.13857,2.7134 -15.93804,4.8591 -27.62668,11.3028 -38.95589,21.4758 -13.08502,11.7495 -24.45049,30.7942 -29.08177,48.7312 -3.17726,12.3056 -3.19769,35.0635 -0.0419,46.6464 6.21622,22.8156 21.12616,44.3733 39.01064,56.4038 17.62602,11.8567 34.10259,16.8932 55.20747,16.8757 18.0679,-0.015 31.45496,-3.209 45.93436,-10.9594 5.10388,-2.732 5.92434,-2.9767 3.68519,-1.0989 -7.64103,6.4078 -25.69141,14.0465 -40.43493,17.1116 -8.88339,1.8468 -28.94252,1.8347 -38.24992,-0.023 z"
         id="path805" />
      <path
         style="fill:#008000"
         d="m 824.67582,620.026 c 0,-10.5417 0.0704,-10.8803 2.80472,-13.5 2.61955,-2.5097 3.39943,-2.6871 11.81291,-2.6871 8.56435,0 9.14058,0.1382 11.69528,2.8047 2.5738,2.6865 2.68709,3.2557 2.68709,13.5 0,10.6808 -0.003,10.6953 -2.44774,10.6953 -2.24778,0 -2.47243,-0.4289 -2.75,-5.25 l -0.30226,-5.25 h -9 -9 l -0.30226,5.25 c -0.27757,4.8211 -0.50222,5.25 -2.75,5.25 -2.44607,0 -2.44774,-0.01 -2.44774,-10.8129 z m 23.81642,-7.9371 c -0.31542,-2.7413 -0.34415,-2.7509 -9.08277,-3.0392 -7.15166,-0.2359 -8.87515,-0.01 -9.35699,1.25 -1.44293,3.7602 0.21451,4.5392 9.65838,4.5392 h 9.0978 z"
         id="path803" />
      <path
         style="fill:#008000"
         d="m 790.67582,625.0389 c 0,-3.19 0.48921,-6.2892 1.08713,-6.8871 0.78285,-0.7829 0.78285,-1.2752 0,-1.7591 -0.59792,-0.3695 -1.08713,-3.3453 -1.08713,-6.6128 0,-5.6704 0.11387,-5.941 2.5,-5.941 2.36364,0 2.5,0.3 2.5,5.5 v 5.5 h 9 9 v -5.5 c 0,-5.2 0.13636,-5.5 2.5,-5.5 2.37931,0 2.5,0.28 2.5,5.8 0,3.19 -0.48921,6.2892 -1.08713,6.8871 -0.78285,0.7829 -0.78285,1.2752 0,1.759 0.59792,0.3696 1.08713,3.3454 1.08713,6.6129 0,5.6704 -0.11387,5.941 -2.5,5.941 -2.36364,0 -2.5,-0.3 -2.5,-5.5 v -5.5 h -9 -9 v 5.5 c 0,5.2 -0.13636,5.5 -2.5,5.5 -2.37931,0 -2.5,-0.28 -2.5,-5.8 z"
         id="path801" />
      <path
         style="fill:#008000"
         d="m 758.36291,628.0342 c -2.45894,-2.5666 -2.68709,-3.4847 -2.68709,-10.8129 0,-7.4687 0.18894,-8.1892 2.80472,-10.6953 2.71702,-2.6031 3.1704,-2.6871 14.5,-2.6871 h 11.69528 v 2.4683 2.4682 l -11.75,0.2818 -11.75,0.2817 v 2.5 c 0,2.4542 0.16038,2.5053 8.75,2.7889 8.51213,0.2811 8.75,0.3548 8.75,2.7111 0,2.3563 -0.23787,2.43 -8.75,2.7111 -8.58962,0.2836 -8.75,0.3347 -8.75,2.7889 v 2.5 l 11.75,0.2817 11.75,0.2818 v 2.4682 2.4683 h -11.81291 c -11.6373,0 -11.85285,-0.042 -14.5,-2.8047 z"
         id="path799" />
      <path
         style="fill:#008000"
         d="m 720.67582,620.026 c 0,-10.5417 0.0704,-10.8803 2.80472,-13.5 2.61955,-2.5097 3.39943,-2.6871 11.81291,-2.6871 8.56435,0 9.14058,0.1382 11.69528,2.8047 2.5738,2.6865 2.68709,3.2557 2.68709,13.5 v 10.6953 h -2.46617 c -2.45101,0 -2.46791,-0.066 -2.75,-10.75 l -0.28383,-10.75 -8.75,-0.2889 -8.75,-0.289 v 11.039 11.0389 h -3 -3 z"
         id="path797" />
      <path
         style="fill:#008000"
         d="m 689.36291,628.0342 c -2.45894,-2.5666 -2.68709,-3.4847 -2.68709,-10.8129 0,-7.4687 0.18894,-8.1892 2.80472,-10.6953 2.61394,-2.5043 3.40946,-2.6871 11.69528,-2.6871 8.28582,0 9.08134,0.1828 11.69528,2.6871 2.62239,2.5124 2.80472,3.2153 2.80472,10.8129 0,7.5976 -0.18233,8.3005 -2.80472,10.8129 -2.61955,2.5097 -3.39943,2.6871 -11.81291,2.6871 -8.56435,0 -9.14058,-0.1382 -11.69528,-2.8047 z M 709.67582,617.3 v -8.539 l -8.75,0.289 -8.75,0.2889 -0.29044,8.25 -0.29044,8.25 h 9.04044 9.04044 z"
         id="path795" />
      <path
         style="fill:#008000"
         d="m 654.67582,620.026 c 0,-10.5417 0.0704,-10.8803 2.80472,-13.5 2.66895,-2.557 3.29825,-2.6871 13,-2.6871 10.16971,0 10.19528,0.01 10.19528,2.465 0,2.4412 -0.0992,2.4678 -10.25,2.75 l -10.25,0.285 -0.28383,10.75 c -0.28209,10.6839 -0.29899,10.75 -2.75,10.75 h -2.46617 z"
         id="path793" />
      <path
         style="fill:#008000"
         d="m 586.67582,620.026 c 0,-10.5417 0.0704,-10.8803 2.80472,-13.5 2.61955,-2.5097 3.39943,-2.6871 11.81291,-2.6871 8.56435,0 9.14058,0.1382 11.69528,2.8047 2.5738,2.6865 2.68709,3.2557 2.68709,13.5 v 10.6953 h -3 c -2.9697,0 -3,-0.056 -3,-5.5 v -5.5 h -9 -9 v 5.5 c 0,5.2 -0.13636,5.5 -2.5,5.5 h -2.5 z m 23,-8.226 v -3.039 l -8.75,0.289 c -8.72084,0.2879 -8.75105,0.2981 -9.06642,3.0389 l -0.31642,2.75 h 9.06642 9.06642 z"
         id="path791" />
      <path
         style="fill:#008000"
         d="m 626.67582,638.8389 v -3 h 8.5 c 8.4,0 8.5,-0.029 8.5,-2.5 0,-2.475 -0.087,-2.5 -8.69528,-2.5 -8.0739,0 -8.89571,-0.192 -11.5,-2.6871 -2.61578,-2.5061 -2.80472,-3.2266 -2.80472,-10.6953 0,-7.3282 0.22815,-8.2463 2.68709,-10.8129 2.53744,-2.6485 3.1675,-2.8047 11.31291,-2.8047 8.14541,0 8.77547,0.1562 11.31291,2.8047 2.64704,2.7629 2.68709,3.0075 2.68709,16.4111 v 13.6064 l -3.07673,2.5889 c -2.74347,2.3085 -3.93491,2.5889 -11,2.5889 h -7.92327 z m 16.79044,-21.25 -0.29044,-8.25 -8.25,-0.2904 -8.25,-0.2905 v 8.5405 8.5404 h 8.54044 8.54044 z"
         id="path789" />
    </g>
  </g>
</svg>
